<?xml version="1.0" encoding="UTF-8"?><svg id="Camada_2" xmlns="http://www.w3.org/2000/svg" viewBox="0 0 369.84 64.54"><defs><style>.cls-1{fill:#fff;}.cls-2{fill:#fca9da;}</style></defs><g id="Camada_1-2"><g><path class="cls-2" d="M49.99,18.3c-2.36,0-4.28,1.92-4.28,4.28h0v13.24c.02,4.53-1.79,8.87-5.03,12.03-3.13,3.27-7.48,5.09-12.01,5.03-4.52,0-8.84-1.81-12.01-5.03-1.6-1.58-2.86-3.46-3.73-5.54-.85-2.06-1.28-4.27-1.26-6.49v-13.24c0-2.36-1.92-4.28-4.28-4.28h-3.12C1.92,18.3,0,20.22,0,22.58H0v13.24c-.02,3.85,.74,7.66,2.24,11.2,2.92,6.89,8.41,12.37,15.3,15.28,7.15,2.99,15.2,2.99,22.35,0,6.89-2.9,12.38-8.39,15.28-15.28,1.52-3.54,2.29-7.35,2.27-11.2v-13.24c0-2.36-1.92-4.28-4.28-4.28h-3.17Z"/><circle class="cls-2" cx="44.2" cy="7.27" r="7.27"/><circle class="cls-2" cx="13.24" cy="7.27" r="7.27"/></g><g><path class="cls-1" d="M99.81,21.79c1.71,.96,3.04,2.37,4,4.23,.96,1.86,1.44,4.1,1.44,6.72v16.99h-7.32v-16c0-2.3-.58-4.07-1.73-5.31-1.15-1.24-2.72-1.86-4.71-1.86s-3.62,.62-4.78,1.86c-1.17,1.24-1.75,3.01-1.75,5.31v16h-7.32V11.04h7.32v13.33c.94-1.25,2.2-2.24,3.76-2.95,1.57-.71,3.31-1.07,5.23-1.07,2.2,0,4.15,.48,5.86,1.44Z"/><path class="cls-1" d="M139.91,20.77l-17.93,42.66h-7.79l6.27-14.43-11.61-28.23h8.21l7.48,20.23,7.58-20.23h7.79Z"/><path class="cls-1" d="M160.87,21.58c1.64,.85,2.93,1.96,3.87,3.32v-4.13h7.37v29.17c0,2.68-.54,5.08-1.62,7.19-1.08,2.11-2.7,3.78-4.86,5.02-2.16,1.24-4.78,1.86-7.84,1.86-4.11,0-7.49-.96-10.12-2.88-2.63-1.92-4.12-4.53-4.47-7.84h7.27c.38,1.32,1.21,2.38,2.48,3.16,1.27,.78,2.81,1.18,4.63,1.18,2.13,0,3.85-.64,5.18-1.91,1.32-1.27,1.99-3.2,1.99-5.78v-4.5c-.94,1.36-2.24,2.49-3.9,3.4-1.66,.91-3.55,1.36-5.67,1.36-2.44,0-4.67-.63-6.69-1.88-2.02-1.25-3.62-3.02-4.78-5.31-1.17-2.28-1.75-4.91-1.75-7.87s.58-5.52,1.75-7.79c1.17-2.27,2.75-4.01,4.76-5.23,2-1.22,4.24-1.83,6.72-1.83,2.16,0,4.06,.43,5.7,1.28Zm2.82,9.1c-.7-1.27-1.64-2.25-2.82-2.93-1.19-.68-2.46-1.02-3.82-1.02s-2.61,.33-3.76,.99c-1.15,.66-2.08,1.63-2.8,2.9-.71,1.27-1.07,2.78-1.07,4.52s.36,3.27,1.07,4.57c.71,1.31,1.66,2.31,2.82,3.01,1.17,.7,2.41,1.05,3.74,1.05s2.63-.34,3.82-1.02c1.18-.68,2.13-1.66,2.82-2.93,.7-1.27,1.05-2.8,1.05-4.57s-.35-3.3-1.05-4.57Z"/><path class="cls-1" d="M179.77,16.09c-.85-.82-1.28-1.84-1.28-3.06s.43-2.24,1.28-3.06c.85-.82,1.93-1.23,3.22-1.23s2.36,.41,3.21,1.23c.85,.82,1.28,1.84,1.28,3.06s-.43,2.24-1.28,3.06c-.85,.82-1.93,1.23-3.21,1.23s-2.36-.41-3.22-1.23Zm6.82,4.68v28.96h-7.32V20.77h7.32Z"/><path class="cls-1" d="M193.68,27.36c1.17-2.27,2.75-4.01,4.76-5.23,2-1.22,4.24-1.83,6.72-1.83,2.16,0,4.05,.44,5.67,1.31,1.62,.87,2.92,1.97,3.9,3.29v-4.13h7.37v28.96h-7.37v-4.23c-.94,1.36-2.24,2.48-3.9,3.37-1.66,.89-3.56,1.33-5.72,1.33-2.44,0-4.66-.63-6.67-1.88-2-1.25-3.59-3.02-4.76-5.31-1.17-2.28-1.75-4.91-1.75-7.87s.58-5.52,1.75-7.79Zm20,3.32c-.7-1.27-1.64-2.25-2.82-2.93-1.19-.68-2.46-1.02-3.82-1.02s-2.61,.33-3.76,.99c-1.15,.66-2.08,1.63-2.8,2.9-.71,1.27-1.07,2.78-1.07,4.52s.36,3.27,1.07,4.57c.71,1.31,1.66,2.31,2.82,3.01,1.17,.7,2.41,1.05,3.74,1.05s2.63-.34,3.82-1.02c1.18-.68,2.13-1.66,2.82-2.93,.7-1.27,1.05-2.8,1.05-4.57s-.35-3.3-1.05-4.57Z"/><path class="cls-1" d="M281.85,20.56l-7.9,29.17h-9.88l-4.6-18.93-4.76,18.93h-9.83l-7.95-29.17h8.94l4.13,20.86,4.92-20.86h9.46l4.97,20.76,4.08-20.76h8.42Z"/><path class="cls-1" d="M290.82,48.32c-2.28-1.22-4.08-2.96-5.38-5.23-1.31-2.27-1.96-4.91-1.96-7.95s.66-5.64,1.99-7.92c1.32-2.28,3.14-4.03,5.44-5.25,2.3-1.22,4.88-1.83,7.74-1.83s5.44,.61,7.74,1.83c2.3,1.22,4.11,2.97,5.44,5.25,1.32,2.28,1.99,4.92,1.99,7.92s-.67,5.64-2.01,7.92c-1.34,2.28-3.17,4.03-5.49,5.25-2.32,1.22-4.91,1.83-7.76,1.83s-5.43-.61-7.71-1.83Zm12.08-7.79c1.2-1.25,1.8-3.05,1.8-5.39s-.58-4.13-1.75-5.38c-1.17-1.25-2.61-1.88-4.31-1.88s-3.19,.62-4.34,1.86c-1.15,1.24-1.72,3.04-1.72,5.41s.57,4.13,1.7,5.39,2.55,1.88,4.26,1.88,3.16-.63,4.37-1.88Z"/><path class="cls-1" d="M331.42,21.63c1.57-.92,3.31-1.39,5.23-1.39v9.46h-2.46c-2.23,0-3.9,.48-5.02,1.44-1.12,.96-1.67,2.64-1.67,5.05v13.54h-8.94V20.56h8.94v4.86c1.05-1.6,2.35-2.87,3.92-3.79Z"/><path class="cls-1" d="M358.76,49.73l-8.89-12.23v12.23h-8.94V11.04h8.94v21.38l8.84-11.87h11.03l-12.13,14.64,12.23,14.53h-11.08Z"/></g></g></svg>